<svg width="10" height="10" viewBox="0 0 10 10" fill="none" xmlns="http://www.w3.org/2000/svg">
<path d="M5 0C2.24295 0 0 2.24295 0 5C0 7.75706 2.24295 10 5 10C7.75706 10 10 7.75704 10 5C10 2.24295 7.75706 0 5 0ZM5 8.9071C2.84557 8.9071 1.0929 7.15443 1.0929 5C1.0929 2.84567 2.84557 1.0929 5 1.0929C7.15443 1.0929 8.9071 2.84567 8.9071 5C8.9071 7.15443 7.15443 8.9071 5 8.9071Z" fill="#4E4E4E"/>
<path d="M5.43281 5.006V2.91039C5.43281 2.6764 5.2432 2.48679 5.0093 2.48679C4.77532 2.48679 4.58569 2.6764 4.58569 2.91039V5.14133C4.58569 5.14799 4.58734 5.15424 4.58766 5.1609C4.58209 5.27608 4.62177 5.39303 4.70973 5.48102L6.28734 7.0585C6.45281 7.22397 6.721 7.22397 6.88634 7.0585C7.05171 6.89303 7.05181 6.62484 6.88634 6.45948L5.43281 5.006Z" fill="#4E4E4E"/>
</svg>
