<svg width="25" height="25" viewBox="0 0 25 25" fill="none" xmlns="http://www.w3.org/2000/svg">
<path d="M20.5275 0H4.47246C2.00635 0 0 2.00635 0 4.47246V20.5276C0 22.9937 2.00635 25 4.47246 25H20.5276C22.9937 25 25 22.9937 25 20.5275V4.47246C25 2.00635 22.9937 0 20.5275 0ZM23.5352 20.5275C23.5352 22.1859 22.1859 23.5352 20.5275 23.5352H4.47246C2.81406 23.5352 1.46484 22.1859 1.46484 20.5275V4.47246C1.46484 2.81406 2.81406 1.46484 4.47246 1.46484H20.5276C22.1859 1.46484 23.5352 2.81406 23.5352 4.47246V20.5275Z" fill="#7F7F7F"/>
<path d="M21.1297 5.49157H9.97436C9.66768 4.58068 8.8061 3.92258 7.79312 3.92258C6.78013 3.92258 5.91855 4.58068 5.61187 5.49157H3.87061C3.46611 5.49157 3.13818 5.8195 3.13818 6.22399C3.13818 6.62849 3.46611 6.95641 3.87061 6.95641H5.61191C5.9186 7.8673 6.78018 8.52541 7.79316 8.52541C8.80615 8.52541 9.66772 7.8673 9.97441 6.95641H21.1297C21.5342 6.95641 21.8622 6.62849 21.8622 6.22399C21.8622 5.8195 21.5342 5.49157 21.1297 5.49157ZM7.79312 7.06057C7.33184 7.06057 6.95654 6.68527 6.95654 6.22399C6.95654 5.76271 7.33184 5.38742 7.79312 5.38742C8.25439 5.38742 8.62969 5.76271 8.62969 6.22399C8.62969 6.68527 8.25439 7.06057 7.79312 7.06057Z" fill="#7F7F7F"/>
<path d="M21.1297 11.7676H19.3884C19.0817 10.8567 18.2201 10.1986 17.2071 10.1986C16.1942 10.1986 15.3326 10.8567 15.0259 11.7676H3.87061C3.46611 11.7676 3.13818 12.0955 3.13818 12.5C3.13818 12.9045 3.46611 13.2324 3.87061 13.2324H15.0259C15.3326 14.1433 16.1942 14.8014 17.2072 14.8014C18.2201 14.8014 19.0817 14.1433 19.3884 13.2324H21.1297C21.5342 13.2324 21.8622 12.9045 21.8622 12.5C21.8622 12.0955 21.5342 11.7676 21.1297 11.7676ZM17.2072 13.3366C16.7459 13.3366 16.3706 12.9613 16.3706 12.5C16.3706 12.0387 16.7459 11.6634 17.2072 11.6634C17.6685 11.6634 18.0437 12.0387 18.0437 12.5C18.0437 12.9613 17.6685 13.3366 17.2072 13.3366Z" fill="#7F7F7F"/>
<path d="M21.1297 18.0436H13.1124C12.8057 17.1327 11.9441 16.4746 10.9312 16.4746C9.91816 16.4746 9.05659 17.1327 8.7499 18.0436H3.87061C3.46611 18.0436 3.13818 18.3715 3.13818 18.776C3.13818 19.1805 3.46611 19.5084 3.87061 19.5084H8.7499C9.05659 20.4193 9.91816 21.0774 10.9312 21.0774C11.9441 21.0774 12.8057 20.4193 13.1124 19.5084H21.1297C21.5342 19.5084 21.8622 19.1805 21.8622 18.776C21.8622 18.3715 21.5342 18.0436 21.1297 18.0436ZM10.9312 19.6126C10.4699 19.6126 10.0946 19.2374 10.0946 18.7761C10.0946 18.3148 10.4699 17.9395 10.9312 17.9395C11.3924 17.9395 11.7677 18.3147 11.7677 18.776C11.7677 19.2373 11.3924 19.6126 10.9312 19.6126Z" fill="#7F7F7F"/>
</svg>
