<svg width="57" height="57" viewBox="0 0 57 57" fill="none" xmlns="http://www.w3.org/2000/svg">
<path d="M46.8214 0H10.1785C4.55984 0.00667968 0.00667968 4.55984 0 10.1785V46.8214C0.00667968 52.44 4.55984 56.9932 10.1785 56.9999H46.8214C52.44 56.9932 56.9932 52.44 56.9999 46.8214V10.1785C56.9932 4.55984 52.44 0.00667968 46.8214 0ZM52.9285 46.8214C52.9285 50.1942 50.1942 52.9285 46.8214 52.9285H10.1785C6.80564 52.9285 4.07139 50.1942 4.07139 46.8214V10.1785C4.07139 6.80564 6.80564 4.07139 10.1785 4.07139H46.8214C50.1942 4.07139 52.9285 6.80564 52.9285 10.1785V46.8214Z" fill="#373737"/>
<path d="M38.6785 26.4643H30.5357V18.3214C30.5357 17.1971 29.6242 16.2857 28.4999 16.2857C27.3756 16.2857 26.4642 17.1971 26.4642 18.3214V26.4643H18.3214C17.1971 26.4643 16.2856 27.3757 16.2856 28.5001C16.2856 29.6244 17.1971 30.5357 18.3214 30.5357H26.4643V38.6786C26.4643 39.8029 27.3757 40.7143 28.5 40.7143C29.6244 40.7143 30.5357 39.8028 30.5357 38.6786V30.5357H38.6785C39.8029 30.5357 40.7143 29.6243 40.7143 28.5C40.7143 27.3756 39.8027 26.4643 38.6785 26.4643Z" fill="#373737"/>
</svg>
