<svg width="15" height="15" viewBox="0 0 15 15" fill="none" xmlns="http://www.w3.org/2000/svg">
<path d="M12.3214 0H2.67856C1.19996 0.00175781 0.00175781 1.19996 0 2.67856V12.3214C0.00175781 13.8 1.19996 14.9982 2.67856 15H12.3214C13.8 14.9982 14.9982 13.8 15 12.3214V2.67856C14.9982 1.19996 13.8 0.00175781 12.3214 0ZM10.1786 8.03571H8.03571V10.1786C8.03571 10.4745 7.79586 10.7143 7.49998 10.7143C7.20411 10.7143 6.96426 10.4745 6.96426 10.1786V8.03571H4.82143C4.52555 8.03571 4.2857 7.79586 4.2857 7.49998C4.2857 7.20411 4.52555 6.96426 4.82143 6.96426H6.96429V4.82143C6.96429 4.52555 7.20414 4.2857 7.50002 4.2857C7.79589 4.2857 8.03571 4.52555 8.03571 4.82143V6.96429H10.1786C10.4745 6.96429 10.7143 7.20414 10.7143 7.50002C10.7143 7.79589 10.4744 8.03571 10.1786 8.03571Z" fill="#FF9F3F"/>
</svg>
