<?xml version="1.0" encoding="UTF-8" standalone="no"?>
<svg
   xmlns="http://www.w3.org/2000/svg"
   viewBox="0 0 15 14.999999"
   width="15"
   height="14.999999">
<g
   id="g6"
   transform="matrix(0.04318188,0,0,0.0429946,-0.03268868,0)">
	<path
   fill="#FF9F3F"
   d="m 333.988,11.758 -0.42,-0.383 C 325.538,4.04 315.129,0 304.258,0 292.071,0 280.37,5.159 272.154,14.153 L 116.803,184.231 c -1.416,1.55 -2.49,3.379 -3.154,5.37 l -18.267,54.762 c -2.112,6.331 -1.052,13.333 2.835,18.729 3.918,5.438 10.23,8.685 16.886,8.685 0,0 0.001,0 0.001,0 2.879,0 5.693,-0.592 8.362,-1.76 l 52.89,-23.138 c 1.923,-0.841 3.648,-2.076 5.063,-3.626 L 336.771,73.176 C 352.937,55.479 351.69,27.929 333.988,11.758 Z m -203.607,222.489 10.719,-32.134 0.904,-0.99 20.316,18.556 -0.904,0.99 z M 314.621,52.943 182.553,197.53 162.237,178.974 294.305,34.386 c 2.583,-2.828 6.118,-4.386 9.954,-4.386 3.365,0 6.588,1.252 9.082,3.53 l 0.419,0.383 c 5.484,5.009 5.87,13.546 0.861,19.03 z"
   id="path2" />
	<path
   fill="#FF9F3F"
   d="m 303.85,138.388 c -8.284,0 -15,6.716 -15,15 v 127.347 c 0,21.034 -17.113,38.147 -38.147,38.147 H 68.904 c -21.035,0 -38.147,-17.113 -38.147,-38.147 V 100.413 c 0,-21.034 17.113,-38.147 38.147,-38.147 h 131.587 c 8.284,0 15,-6.716 15,-15 0,-8.284 -6.716,-15 -15,-15 H 68.904 c -37.577,0 -68.147,30.571 -68.147,68.147 v 180.321 c 0,37.576 30.571,68.147 68.147,68.147 h 181.798 c 37.576,0 68.147,-30.571 68.147,-68.147 V 153.388 c 0.001,-8.284 -6.715,-15 -14.999,-15 z"
   id="path4" /></g><g
   id="g8"
   transform="translate(-0.87069466,-0.58046311)" /><g
   id="g10"
   transform="translate(-0.87069466,-0.58046311)" /><g
   id="g12"
   transform="translate(-0.87069466,-0.58046311)" /><g
   id="g14"
   transform="translate(-0.87069466,-0.58046311)" /><g
   id="g16"
   transform="translate(-0.87069466,-0.58046311)" /><g
   id="g18"
   transform="translate(-0.87069466,-0.58046311)" /><g
   id="g20"
   transform="translate(-0.87069466,-0.58046311)" /><g
   id="g22"
   transform="translate(-0.87069466,-0.58046311)" /><g
   id="g24"
   transform="translate(-0.87069466,-0.58046311)" /><g
   id="g26"
   transform="translate(-0.87069466,-0.58046311)">
</g><g
   id="g28"
   transform="translate(-0.87069466,-0.58046311)" /><g
   id="g30"
   transform="translate(-0.87069466,-0.58046311)" /><g
   id="g32"
   transform="translate(-0.87069466,-0.58046311)" /><g
   id="g34"
   transform="translate(-0.87069466,-0.58046311)" /><g
   id="g36"
   transform="translate(-0.87069466,-0.58046311)" />
</svg>
