<svg id="e940rl6steka1" xmlns="http://www.w3.org/2000/svg" xmlns:xlink="http://www.w3.org/1999/xlink" viewBox="0 0 50 69" shape-rendering="geometricPrecision" text-rendering="geometricPrecision"><style><![CDATA[#e940rl6steka4_ts {animation: e940rl6steka4_ts__ts 2200ms linear infinite normal forwards}@keyframes e940rl6steka4_ts__ts { 0% {transform: translate(25.017780px,17.971197px) scale(0,0)} 31.818182% {transform: translate(25.017780px,17.971197px) scale(0,0);animation-timing-function: cubic-bezier(0.250000,1,0.250000,1)} 50% {transform: translate(25.017780px,17.971197px) scale(1,1);animation-timing-function: cubic-bezier(0.250000,1,0.250000,1)} 86.363636% {transform: translate(25.017780px,17.971197px) scale(1,1)} 95.454545% {transform: translate(25.017780px,17.971197px) scale(0,0)} 100% {transform: translate(25.017780px,17.971197px) scale(0,0)} }#e940rl6steka5_ts {animation: e940rl6steka5_ts__ts 2200ms linear infinite normal forwards}@keyframes e940rl6steka5_ts__ts { 0% {transform: translate(11.290000px,51.500000px) scale(1,0);animation-timing-function: cubic-bezier(0.250000,1,0.250000,1)} 18.181818% {transform: translate(11.290000px,51.500000px) scale(1,1);animation-timing-function: cubic-bezier(0.250000,1,0.250000,1)} 77.272727% {transform: translate(11.290000px,51.500000px) scale(1,1)} 86.363636% {transform: translate(11.290000px,51.500000px) scale(0,0)} 100% {transform: translate(11.290000px,51.500000px) scale(0,0)} }#e940rl6steka6_ts {animation: e940rl6steka6_ts__ts 2200ms linear infinite normal forwards}@keyframes e940rl6steka6_ts__ts { 0% {transform: translate(39.434982px,51.499939px) scale(1,0);animation-timing-function: cubic-bezier(0.250000,1,0.250000,1)} 18.181818% {transform: translate(39.434982px,51.499939px) scale(1,1);animation-timing-function: cubic-bezier(0.250000,1,0.250000,1)} 77.272727% {transform: translate(39.434982px,51.499939px) scale(1,1)} 86.363636% {transform: translate(39.434982px,51.499939px) scale(0,0)} 100% {transform: translate(39.434982px,51.499939px) scale(0,0)} }#e940rl6steka7 {animation: e940rl6steka7_c_o 2200ms linear infinite normal forwards}@keyframes e940rl6steka7_c_o { 0% {opacity: 0} 18.181818% {opacity: 0;animation-timing-function: cubic-bezier(0.250000,1,0.250000,1)} 31.818182% {opacity: 1;animation-timing-function: cubic-bezier(0.250000,1,0.250000,1)} 63.636364% {opacity: 1} 77.272727% {opacity: 0} 100% {opacity: 0} }]]></style><g id="e940rl6steka2" clip-path="url(#e940rl6steka8)"><g id="e940rl6steka3"><g id="e940rl6steka4_ts" transform="translate(25.017780,17.971197) scale(0,0)"><path id="e940rl6steka4" d="M49.060000,10.290000L25.620000,0.130002C25.424100,0.045813,25.213200,0.002396,25,0.002396C24.786800,0.002396,24.575900,0.045813,24.380000,0.130002L0.940000,10.290000C0.661662,10.411400,0.424789,10.611300,0.258430,10.865300C0.092071,11.119300,0.003458,11.416400,0.003458,11.720000C0.003458,12.023600,0.092071,12.320700,0.258430,12.574700C0.424789,12.828700,0.661662,13.028700,0.940000,13.150000L9.370000,16.810000L9.370000,26.560000C9.370000,31.820000,16.240000,35.940000,25,35.940000C33.760000,35.940000,40.630000,31.820000,40.630000,26.560000L40.630000,16.810000L42.190000,16.130000L42.190000,32.810000C42.190000,33.014900,42.230300,33.217700,42.308700,33.407000C42.387100,33.596300,42.502100,33.768200,42.646900,33.913100C42.791800,34.057900,42.963700,34.172900,43.153000,34.251300C43.342300,34.329600,43.545100,34.370000,43.750000,34.370000C43.954900,34.370000,44.157700,34.329600,44.347000,34.251300C44.536200,34.172900,44.708200,34.057900,44.853100,33.913100C44.997900,33.768200,45.112900,33.596300,45.191300,33.407000C45.269600,33.217700,45.310000,33.014900,45.310000,32.810000L45.310000,14.810000L49.060000,13.180000C49.347300,13.063100,49.593300,12.863200,49.766500,12.605800C49.939600,12.348400,50.032100,12.045200,50.032100,11.735000C50.032100,11.424800,49.939600,11.121600,49.766500,10.864200C49.593300,10.606800,49.347300,10.406900,49.060000,10.290000ZM25,3.270000L44.510000,11.720000L43,12.390000L25.190000,10.170000C24.986500,10.145100,24.780000,10.160400,24.582400,10.215300C24.384800,10.270100,24.199900,10.363300,24.038300,10.489600C23.876800,10.615900,23.741600,10.772800,23.640700,10.951300C23.539800,11.129800,23.475000,11.326500,23.450000,11.530000C23.425000,11.733600,23.440400,11.940000,23.495300,12.137600C23.550100,12.335200,23.643300,12.520100,23.769600,12.681700C23.895900,12.843200,24.052800,12.978400,24.231300,13.079300C24.409800,13.180300,24.606500,13.245100,24.810000,13.270000L37.320000,14.830000L25,20.170000L5.490000,11.720000L25,3.270000ZM37.500000,26.560000C37.500000,28.040000,36.290000,29.560000,34.190000,30.720000C31.346500,32.166500,28.189600,32.887900,25,32.820000C21.807400,32.885800,18.647800,32.164600,15.800000,30.720000C13.700000,29.550000,12.490000,28.040000,12.490000,26.560000L12.490000,18.160000L24.370000,23.310000C24.565900,23.394200,24.776800,23.437600,24.990000,23.437600C25.203200,23.437600,25.414100,23.394200,25.610000,23.310000L37.500000,18.160000L37.500000,26.560000Z" transform="translate(-25.017780,-17.971197)" fill="rgb(255,159,63)" stroke="none" stroke-width="1"/></g><g id="e940rl6steka5_ts" transform="translate(11.290000,51.500000) scale(1,0)"><path id="e940rl6steka5" d="M12.850000,36.560000C12.850000,35.698400,12.151600,35,11.290000,35C10.428400,35,9.730000,35.698400,9.730000,36.560000L9.730000,66.440000C9.730000,67.301600,10.428400,68,11.290000,68C12.151600,68,12.850000,67.301600,12.850000,66.440000L12.850000,36.560000Z" transform="translate(-11.290000,-51.500000)" fill="rgb(255,159,63)" stroke="rgb(255,159,63)" stroke-width="0.500000" stroke-linejoin="round"/></g><g id="e940rl6steka6_ts" transform="translate(39.434982,51.499939) scale(1,0)"><path id="e940rl6steka6" d="M39.430000,68C39.224300,68,39.020600,67.959300,38.830700,67.880300C38.640800,67.801300,38.468400,67.685500,38.323400,67.539600C38.178400,67.393600,38.063700,67.220500,37.985900,67.030100C37.908100,66.839600,37.868700,66.635700,37.870000,66.430000L37.870000,36.570000C37.867300,36.158000,38.027800,35.761600,38.316300,35.467500C38.604800,35.173300,38.998000,35.005300,39.410000,35C39.617900,34.997400,39.824200,35.036000,40.017000,35.113700C40.209800,35.191400,40.385200,35.306700,40.533100,35.452700C40.681000,35.598800,40.798500,35.772700,40.878600,35.964500C40.958800,36.156300,41,36.362100,41,36.570000L41,38.120000L41,66.430000C41,66.846400,40.834600,67.245700,40.540200,67.540200C40.245700,67.834600,39.846400,68,39.430000,68Z" transform="translate(-39.434982,-51.499939)" fill="rgb(255,159,63)" stroke="rgb(255,159,63)" stroke-width="0.500000" stroke-linecap="round" stroke-linejoin="round" stroke-dasharray="0"/></g><path id="e940rl6steka7" d="M39.347200,40L36.996800,41.085900L36.881600,41.145700L25.436300,46.455700C25.313900,46.512000,25.181600,46.541100,25.047800,46.541100C24.913900,46.541100,24.781600,46.512000,24.659200,46.455700L12.993200,41.036100L10.767500,40.039800L10,40.039800L10,43.148200L10.057600,43.148200L12.993200,44.513000L13.050800,44.513000L24.457700,49.872900C24.645600,49.956700,24.848000,50,25.052600,50C25.257100,50,25.459500,49.956700,25.647400,49.872900L36.996800,44.602700L37.054300,44.602700L39.414400,43.506800C39.592400,43.428600,39.743500,43.296400,39.847900,43.127500C39.952300,42.958700,40.005200,42.761000,39.999600,42.560400L39.999600,40L39.347200,40Z" opacity="0" fill="rgb(255,159,63)" stroke="rgb(255,159,63)" stroke-width="0.250000" stroke-linejoin="round"/></g><clipPath id="e940rl6steka8"><rect id="e940rl6steka9" width="50" height="68.250000" rx="0" ry="0" fill="rgb(255,255,255)" stroke="none" stroke-width="1"/></clipPath></g></svg>