<svg width="50" height="69" viewBox="0 0 50 69" fill="none" xmlns="http://www.w3.org/2000/svg">
<g clip-path="url(#clip0)">
<path d="M49.06 10.29L25.62 0.130002C25.4241 0.0458133 25.2132 0.00239563 25 0.00239563C24.7868 0.00239563 24.5759 0.0458133 24.38 0.130002L0.94 10.29C0.661662 10.4114 0.424789 10.6113 0.25843 10.8653C0.0920712 11.1193 0.00345802 11.4164 0.00345802 11.72C0.00345802 12.0236 0.0920712 12.3207 0.25843 12.5747C0.424789 12.8287 0.661662 13.0287 0.94 13.15L9.37 16.81V26.56C9.37 31.82 16.24 35.94 25 35.94C33.76 35.94 40.63 31.82 40.63 26.56V16.81L42.19 16.13V32.81C42.19 33.0149 42.2303 33.2177 42.3087 33.407C42.3871 33.5963 42.5021 33.7682 42.6469 33.9131C42.7918 34.0579 42.9637 34.1729 43.153 34.2513C43.3423 34.3296 43.5451 34.37 43.75 34.37C43.9549 34.37 44.1577 34.3296 44.347 34.2513C44.5362 34.1729 44.7082 34.0579 44.8531 33.9131C44.9979 33.7682 45.1129 33.5963 45.1913 33.407C45.2696 33.2177 45.31 33.0149 45.31 32.81V14.81L49.06 13.18C49.3473 13.0631 49.5933 12.8632 49.7665 12.6058C49.9396 12.3484 50.0321 12.0452 50.0321 11.735C50.0321 11.4248 49.9396 11.1216 49.7665 10.8642C49.5933 10.6068 49.3473 10.4069 49.06 10.29ZM25 3.27L44.51 11.72L43 12.39L25.19 10.17C24.9865 10.1451 24.78 10.1604 24.5824 10.2153C24.3848 10.2701 24.1999 10.3633 24.0383 10.4896C23.8768 10.6159 23.7416 10.7728 23.6407 10.9513C23.5398 11.1298 23.475 11.3265 23.45 11.53C23.425 11.7336 23.4404 11.94 23.4953 12.1376C23.5501 12.3352 23.6433 12.5201 23.7696 12.6817C23.8959 12.8432 24.0528 12.9784 24.2313 13.0793C24.4098 13.1803 24.6065 13.2451 24.81 13.27L37.32 14.83L25 20.17L5.49 11.72L25 3.27ZM37.5 26.56C37.5 28.04 36.29 29.56 34.19 30.72C31.3465 32.1665 28.1896 32.8879 25 32.82C21.8074 32.8858 18.6478 32.1646 15.8 30.72C13.7 29.55 12.49 28.04 12.49 26.56V18.16L24.37 23.31C24.5659 23.3942 24.7768 23.4376 24.99 23.4376C25.2032 23.4376 25.4141 23.3942 25.61 23.31L37.5 18.16V26.56Z" fill="#FF9F3F"/>
<path d="M12.85 36.56C12.85 35.6984 12.1516 35 11.29 35C10.4284 35 9.73 35.6984 9.73 36.56V66.44C9.73 67.3016 10.4284 68 11.29 68C12.1516 68 12.85 67.3016 12.85 66.44V36.56Z" fill="#FF9F3F" stroke="#FF9F3F" stroke-width="0.5" stroke-linejoin="round"/>
<path d="M39.43 68C39.2243 68 39.0206 67.9593 38.8307 67.8803C38.6408 67.8013 38.4684 67.6855 38.3234 67.5396C38.1784 67.3936 38.0637 67.2205 37.9859 67.0301C37.9081 66.8396 37.8687 66.6357 37.87 66.43V36.57C37.8673 36.158 38.0278 35.7616 38.3163 35.4675C38.6048 35.1733 38.998 35.0053 39.41 35C39.6179 34.9974 39.8242 35.036 40.017 35.1137C40.2098 35.1914 40.3852 35.3067 40.5331 35.4527C40.681 35.5988 40.7985 35.7727 40.8786 35.9645C40.9588 36.1563 41 36.3621 41 36.57V38.12V66.43C41 66.8464 40.8346 67.2457 40.5402 67.5402C40.2457 67.8346 39.8464 68 39.43 68Z" fill="#FF9F3F" stroke="#FF9F3F" stroke-width="0.5" stroke-linecap="round" stroke-linejoin="round"/>
<path d="M39.3472 40L36.9968 41.0859L36.8816 41.1457L25.4363 46.4557C25.3139 46.512 25.1816 46.5411 25.0478 46.5411C24.9139 46.5411 24.7816 46.512 24.6592 46.4557L12.9932 41.0361L10.7675 40.0398H10V43.1482H10.0576L12.9932 44.513H13.0508L24.4577 49.8729C24.6456 49.9567 24.848 50 25.0526 50C25.2571 50 25.4595 49.9567 25.6474 49.8729L36.9968 44.6027H37.0543L39.4144 43.5068C39.5924 43.4286 39.7435 43.2964 39.8479 43.1275C39.9523 42.9587 40.0052 42.761 39.9996 42.5604V40H39.3472Z" fill="#FF9F3F" stroke="#FF9F3F" stroke-width="0.25" stroke-linejoin="round"/>
</g>
<defs>
<clipPath id="clip0">
<rect width="50" height="68.25" fill="white"/>
</clipPath>
</defs>
</svg>
