<svg width="20" height="20" viewBox="0 0 20 20" fill="none" xmlns="http://www.w3.org/2000/svg">
<g clip-path="url(#clip0)">
<path d="M19.8111 9.69495C19.819 9.68531 19.8259 9.67515 19.8333 9.66527C19.8422 9.65339 19.8514 9.64179 19.8596 9.62945C19.8676 9.61761 19.8744 9.60531 19.8817 9.59312C19.8884 9.58195 19.8954 9.57105 19.9015 9.55953C19.9082 9.54711 19.9138 9.53434 19.9198 9.52168C19.9254 9.50969 19.9314 9.49789 19.9365 9.48563C19.9416 9.47332 19.9457 9.46078 19.9502 9.44829C19.9549 9.43512 19.9599 9.42211 19.964 9.40864C19.9678 9.39614 19.9706 9.38344 19.9738 9.37083C19.9772 9.35712 19.9811 9.34356 19.9838 9.32958C19.9867 9.31493 19.9884 9.30017 19.9906 9.28544C19.9923 9.27329 19.9946 9.2613 19.9958 9.249C20.0012 9.19431 20.0012 9.1392 19.9958 9.08451C19.9946 9.07221 19.9923 9.06025 19.9906 9.04811C19.9884 9.03334 19.9867 9.01858 19.9838 9.00397C19.981 8.98998 19.9772 8.97647 19.9737 8.96276C19.9706 8.9501 19.9678 8.93741 19.964 8.92491C19.9599 8.91147 19.9549 8.89846 19.9502 8.88534C19.9457 8.87284 19.9416 8.86026 19.9365 8.84796C19.9314 8.83569 19.9254 8.8239 19.9198 8.81194C19.9138 8.79925 19.9082 8.78648 19.9015 8.77406C19.8954 8.76257 19.8884 8.75167 19.8817 8.7405C19.8745 8.72831 19.8676 8.71601 19.8597 8.70414C19.8514 8.69183 19.8422 8.68023 19.8334 8.6684C19.826 8.65847 19.819 8.64828 19.8111 8.63863C19.7938 8.61758 19.7756 8.5973 19.7563 8.57805C19.7562 8.57789 19.7561 8.57773 19.7559 8.57758L17.256 6.07768C16.9306 5.75226 16.403 5.75226 16.0776 6.07768C15.7521 6.4031 15.7521 6.93073 16.0776 7.25615L17.1549 8.33353H12.5003C12.0401 8.33353 11.667 8.7066 11.667 9.16681C11.667 9.62703 12.0401 10.0001 12.5003 10.0001H17.1549L16.0775 11.0775C15.7521 11.4029 15.7521 11.9305 16.0775 12.2559C16.4029 12.5814 16.9306 12.5814 17.256 12.2559L19.7559 9.75605C19.756 9.75589 19.7562 9.75573 19.7563 9.75558C19.7756 9.73628 19.7938 9.71605 19.8111 9.69495Z" fill="#7F7F7F"/>
<path d="M14.1679 11.6669C13.7076 11.6669 13.3346 12.04 13.3346 12.5002V16.6667H10.0014V3.33423V3.33392C10.0014 2.96592 9.76 2.64148 9.40755 2.53575L6.51275 1.66731H13.3346V5.83381C13.3346 6.29403 13.7077 6.6671 14.1679 6.6671C14.6281 6.6671 15.0012 6.29403 15.0012 5.83381V0.83402C15.0012 0.373804 14.6281 0.000733368 14.1679 0.000733368H0.835088C0.83501 0.000733368 0.834932 0.000733368 0.834854 0.000733368C0.810206 0.000694307 0.785793 0.00186613 0.761575 0.00397542C0.379325 0.0328024 0.130156 0.284237 0.0396127 0.58442C0.0337927 0.603091 0.0287147 0.622153 0.0241837 0.641449C0.023715 0.64352 0.0233243 0.645629 0.0228556 0.647738C0.0183636 0.667581 0.0146138 0.687736 0.011528 0.708165C0.0110983 0.711056 0.0106296 0.713907 0.0101999 0.716798C0.0075828 0.73543 0.00551257 0.754296 0.00414544 0.773397C0.00172367 0.804177 0.000981511 0.835035 0.00176273 0.865893V17.5003C0.00176273 17.8975 0.282142 18.2396 0.671657 18.3174L9.00464 19.9841C9.52028 20.0872 10.0014 19.6928 10.0014 19.1669V18.3333H14.1679C14.6281 18.3333 15.0011 17.9602 15.0011 17.5V12.5002C15.0011 12.04 14.6281 11.6669 14.1679 11.6669ZM8.33478 18.1505L1.66837 16.8172V1.95433L8.33478 3.95424V17.5V18.1505Z" fill="#7F7F7F"/>
</g>
<defs>
<clipPath id="clip0">
<rect width="20" height="20" fill="white"/>
</clipPath>
</defs>
</svg>
