<svg width="20" height="20" viewBox="0 0 20 20" fill="none" xmlns="http://www.w3.org/2000/svg">
<g clip-path="url(#clip0)">
<path d="M10 5.20476L12.3748 3.22581H15.4839V0H7.74194V3.22581H10V5.20476ZM8.3871 2.58065V0.645161H14.8387V2.58065H12.1414L10.6452 3.82749V2.58065H8.3871Z" fill="#4E4E4E"/>
<path d="M9.03223 1.29033H9.67739V1.93549H9.03223V1.29033Z" fill="#4E4E4E"/>
<path d="M10.3225 1.29033H12.9032V1.93549H10.3225V1.29033Z" fill="#4E4E4E"/>
<path d="M13.5483 1.29033H14.1935V1.93549H13.5483V1.29033Z" fill="#4E4E4E"/>
<path d="M16.4209 19.3548L16.1601 16.7435C17.2371 16.5732 18.0645 15.6406 18.0645 14.5161V10.3226H16.7742V9.87683C16.7742 9.43832 16.5332 9.04455 16.1457 8.84262C16.531 8.4887 16.7742 7.98262 16.7742 7.41936V6.7742C16.7742 5.70675 15.9062 4.83871 14.8387 4.83871C13.7713 4.83871 12.9032 5.70675 12.9032 6.7742V7.41936C12.9032 8.25448 13.4358 8.96548 14.1784 9.2364L12.4471 10.9677H10.6381C10.602 10.43 10.2326 9.96126 9.70939 9.81162L8.3871 9.43423V8.85806C8.78197 8.5035 9.03226 7.99096 9.03226 7.41936V6.7742C9.03226 5.70675 8.16422 4.83871 7.09677 4.83871C6.02933 4.83871 5.16129 5.70675 5.16129 6.7742V7.41936C5.16129 7.99065 5.41157 8.50319 5.80645 8.85806V9.43454L4.48415 9.81194C3.93318 9.96898 3.54839 10.4793 3.54839 11.0526V12.2581H2.25806V14.1936H2.90323V19.3548H0V20H20V19.3548H16.4209ZM13.5484 14.1936V12.7142L15.8342 10.4284C15.9994 10.2632 16.0977 10.0413 16.1197 9.80973C16.1226 9.83226 16.129 9.85352 16.129 9.87683V13.871C16.129 14.4045 15.6948 14.8387 15.1613 14.8387H12.5806V14.1936H13.5484ZM12.5806 16.7742H14.2243L14.4823 19.3548H12.5806V16.7742ZM14.8726 16.7742H15.5146L15.7726 19.3548H15.1306L14.8726 16.7742ZM16.7742 13.871V10.9677H17.4194V14.5161C17.4194 15.4054 16.6958 16.129 15.8065 16.129H12.5806V15.4839H15.1613C16.0506 15.4839 16.7742 14.7603 16.7742 13.871ZM13.5484 7.41936V6.7742C13.5484 6.06257 14.1271 5.48388 14.8387 5.48388C15.5503 5.48388 16.129 6.06257 16.129 6.7742V7.41936C16.129 8.13099 15.5503 8.70968 14.8387 8.70968C14.1271 8.70968 13.5484 8.13099 13.5484 7.41936ZM12.7142 11.6129L14.8664 9.46069C14.9338 9.39328 15.0271 9.35484 15.1222 9.35484C15.3216 9.35484 15.4839 9.51708 15.4839 9.71649C15.4839 9.81162 15.4454 9.90487 15.378 9.97228L13.0922 12.2581H9.67742C9.49943 12.2581 9.35484 12.1135 9.35484 11.9355C9.35484 11.7575 9.49943 11.6129 9.67742 11.6129H12.7142ZM5.80645 6.7742C5.80645 6.06257 6.38514 5.48388 7.09677 5.48388C7.8084 5.48388 8.3871 6.06257 8.3871 6.7742V7.41936C8.3871 8.13099 7.8084 8.70968 7.09677 8.70968C6.38514 8.70968 5.80645 8.13099 5.80645 7.41936V6.7742ZM7.09677 9.35484C7.32327 9.35484 7.53969 9.31358 7.74194 9.24191V9.58843C7.66192 9.71192 7.43967 10 7.09677 10C6.75387 10 6.53163 9.71192 6.45161 9.58843V9.24191C6.65386 9.31358 6.87027 9.35484 7.09677 9.35484ZM4.19355 11.0526C4.19355 10.7658 4.38618 10.511 4.66135 10.4322L5.99027 10.0526C6.17739 10.2964 6.54155 10.6452 7.09677 10.6452C7.652 10.6452 8.01616 10.2964 8.20328 10.0523L9.5322 10.4319C9.77933 10.5026 9.95164 10.7175 9.98614 10.9674H9.67742C9.14393 10.9674 8.70968 11.4017 8.70968 11.9352C8.70968 12.0487 8.73283 12.1565 8.76906 12.2578H4.19355V11.0526ZM2.90323 12.9032H12.9032V13.5484H2.90323V12.9032ZM3.54839 15.4839H4.51613V14.8387H3.54839V14.1936H11.9355V14.8387H5.16129V15.4839H11.9355V19.3548H11.1671L10.522 18.0645H4.96188L4.31672 19.3548H3.54839V15.4839ZM10.4458 19.3548H5.03812L5.3607 18.7097H10.1232L10.4458 19.3548Z" fill="#4E4E4E"/>
</g>
<defs>
<clipPath id="clip0">
<rect width="20" height="20" fill="white"/>
</clipPath>
</defs>
</svg>
