<svg width="20" height="20" viewBox="0 0 20 20" fill="none" xmlns="http://www.w3.org/2000/svg">
<path d="M17.1875 9.68749H15.9375C15.8964 9.68759 15.8558 9.67957 15.8178 9.66391C15.7798 9.64824 15.7453 9.62522 15.7163 9.59618C15.6873 9.56715 15.6643 9.53266 15.6486 9.4947C15.6329 9.45674 15.6249 9.41606 15.625 9.37499V9.19984C16.3649 8.7434 16.8942 8.01279 17.0974 7.16749C17.3779 7.11681 17.6327 6.97178 17.8194 6.75644C18.0062 6.5411 18.1138 6.26839 18.1243 5.98354C18.1348 5.69868 18.0477 5.41878 17.8773 5.19025C17.7069 4.96172 17.4635 4.79829 17.1875 4.72706V3.43749C17.1868 2.88928 16.9805 2.36128 16.6093 1.95779C16.2382 1.5543 15.7292 1.30468 15.183 1.25824C15.0514 1.06261 14.8735 0.902468 14.6652 0.79201C14.4569 0.681552 14.2245 0.624186 13.9887 0.624993H12.8125C12.0668 0.625831 11.352 0.922416 10.8247 1.44968C10.2974 1.97695 10.0008 2.69183 10 3.43749V4.37499C10 4.45787 10.0329 4.53736 10.0915 4.59596C10.1501 4.65457 10.2296 4.68749 10.3125 4.68749H10.625V4.72691C10.3491 4.79813 10.1058 4.96146 9.93549 5.18985C9.76513 5.41823 9.67791 5.69797 9.68827 5.9827C9.69864 6.26744 9.80597 6.54009 9.99248 6.75549C10.179 6.97088 10.4335 7.11609 10.7138 7.16706C10.722 7.20136 10.7306 7.23551 10.7398 7.26953L11.3429 7.10546C11.2811 6.87754 11.2498 6.64241 11.25 6.40624V4.67804C12.484 4.61905 13.6859 4.26482 14.7547 3.64511C14.8409 3.97425 15.0079 4.27666 15.2405 4.52491C15.4732 4.77316 15.7642 4.95939 16.087 5.06671L16.5625 5.22523V6.40624C16.5625 6.89362 16.4283 7.3716 16.1748 7.78785C15.9213 8.20409 15.5581 8.54258 15.1251 8.76624C14.6921 8.9899 14.2059 9.09013 13.7197 9.05594C13.2335 9.02175 12.7661 8.85448 12.3686 8.57242L12.0064 9.08171C12.1622 9.1924 12.3274 9.28929 12.5 9.37128V9.37499C12.4999 9.45785 12.467 9.53728 12.4084 9.59586C12.3498 9.65445 12.2704 9.6874 12.1875 9.68749H11.875V8.74999C11.8746 8.41859 11.7428 8.10086 11.5085 7.86652C11.2741 7.63218 10.9564 7.50037 10.625 7.49999H1.875C1.54359 7.50037 1.22587 7.63218 0.991528 7.86652C0.757188 8.10086 0.625372 8.41859 0.625 8.74999V9.68749H1.25V8.74999C1.2502 8.58429 1.31611 8.42544 1.43328 8.30827C1.55044 8.1911 1.7093 8.12519 1.875 8.12499H10.625C10.7907 8.12519 10.9496 8.1911 11.0667 8.30827C11.1839 8.42544 11.2498 8.58429 11.25 8.74999V14.375C11.2498 14.5407 11.1839 14.6996 11.0667 14.8167C10.9496 14.9339 10.7907 14.9998 10.625 15H7.17227L7.49305 13.503C7.50281 13.4574 7.50226 13.4102 7.49144 13.3649C7.48062 13.3196 7.4598 13.2773 7.43051 13.241C7.40121 13.2048 7.36419 13.1756 7.32214 13.1555C7.2801 13.1354 7.23409 13.125 7.1875 13.125H5C4.93884 13.125 4.87903 13.1429 4.82797 13.1766C4.77692 13.2103 4.73686 13.2582 4.71277 13.3144L3.99039 15H1.875C1.7093 14.9998 1.55044 14.9339 1.43328 14.8167C1.31611 14.6996 1.2502 14.5407 1.25 14.375V10.3125H0.625V14.375C0.625372 14.7064 0.757188 15.0241 0.991528 15.2585C1.22587 15.4928 1.54359 15.6246 1.875 15.625H3.72266L2.91895 17.5H0.9375C0.85462 17.5 0.775134 17.5329 0.716529 17.5915C0.657924 17.6501 0.625 17.7296 0.625 17.8125V19.0625C0.625 19.1454 0.657924 19.2249 0.716529 19.2835C0.775134 19.3421 0.85462 19.375 0.9375 19.375H19.0625C19.1454 19.375 19.2249 19.3421 19.2835 19.2835C19.3421 19.2249 19.375 19.1454 19.375 19.0625V17.8125C19.375 17.7296 19.3421 17.6501 19.2835 17.5915C19.2249 17.5329 19.1454 17.5 19.0625 17.5H18.5259C18.7927 17.2659 19.0065 16.9775 19.1529 16.6542C19.2993 16.3308 19.375 15.9799 19.375 15.625V15.3125H18.75V15.625C18.7494 16.1221 18.5517 16.5987 18.2002 16.9502C17.8487 17.3017 17.3721 17.4994 16.875 17.5H11.875V16.875C11.8753 16.6264 11.9742 16.3882 12.1499 16.2124C12.3257 16.0366 12.5639 15.9378 12.8125 15.9375H16.875C16.9579 15.9375 17.0374 15.9046 17.096 15.846C17.1546 15.7874 17.1875 15.7079 17.1875 15.625V13.4375H18.75V14.6875H19.375V11.875C19.3743 11.295 19.1437 10.739 18.7336 10.3289C18.3235 9.91884 17.7675 9.68816 17.1875 9.68749ZM17.1875 6.40624V5.39706C17.2705 5.44489 17.3414 5.51117 17.3946 5.59077C17.4479 5.67038 17.4821 5.76117 17.4946 5.85612C17.5072 5.95108 17.4977 6.04764 17.4669 6.13835C17.4361 6.22905 17.3849 6.31145 17.3172 6.37917C17.2779 6.41813 17.2337 6.45176 17.1857 6.47921C17.1862 6.45488 17.1875 6.4307 17.1875 6.40624ZM10.3125 5.93749C10.3123 5.85545 10.3284 5.77419 10.3598 5.69839C10.3912 5.62259 10.4372 5.55374 10.4953 5.49581C10.5341 5.45738 10.5777 5.42413 10.625 5.39691V6.40624C10.625 6.43042 10.6257 6.45452 10.6262 6.47867C10.531 6.42397 10.4519 6.34515 10.3968 6.25015C10.3417 6.15515 10.3126 6.04731 10.3125 5.93749ZM14.6875 2.95546C13.5466 3.67978 12.2229 4.0638 10.8715 4.06249H10.625V3.71441C13.3001 3.36406 14.2434 2.44855 14.2835 2.40847L13.8435 1.96456C13.8413 1.96675 13.6139 2.18288 13.0653 2.43273C12.6038 2.64292 11.8242 2.91609 10.6547 3.07968C10.688 2.87774 10.7497 2.68153 10.8379 2.49687C12.0071 2.46386 12.6131 2.16781 12.6398 2.15449L12.362 1.59464C12.3575 1.59683 12.0077 1.7623 11.3225 1.83796C11.7265 1.45991 12.2592 1.24971 12.8125 1.24999H13.9887C14.1292 1.24949 14.2674 1.28538 14.3898 1.35417C14.5123 1.42295 14.6148 1.52229 14.6875 1.64249V2.95546ZM16.2847 4.47382C16.0014 4.3797 15.7551 4.19872 15.5805 3.95658C15.406 3.71444 15.3122 3.42347 15.3125 3.12499V1.90624C15.6652 1.97877 15.9821 2.17067 16.2098 2.4496C16.4375 2.72852 16.5621 3.07743 16.5625 3.43749V4.5664L16.2847 4.47382ZM13.1004 9.58745C13.7313 9.74683 14.3952 9.71522 15.008 9.49663C15.0344 9.70183 15.1282 9.89244 15.2747 10.0385C15.3208 10.0845 15.3716 10.1255 15.4261 10.161L15.337 10.2798C15.1787 10.4914 14.9717 10.6617 14.7335 10.7762C14.4953 10.8907 14.2329 10.946 13.9688 10.9374C13.7046 10.9288 13.4464 10.8566 13.2162 10.7268C12.9859 10.5971 12.7904 10.4136 12.6462 10.1921C12.7596 10.1283 12.8586 10.0415 12.9368 9.93746C13.015 9.83337 13.0707 9.71419 13.1004 9.58745ZM11.25 16.875V17.5H9.6875V16.875H11.25ZM10.5866 15.625H10.625C10.7304 15.6251 10.8354 15.6118 10.9375 15.5854V16.25H10.3366L10.5866 15.625ZM8.08656 15.625H9.91344L9.66344 16.25H9.375C9.29212 16.25 9.21263 16.2829 9.15403 16.3415C9.09542 16.4001 9.0625 16.4796 9.0625 16.5625V17.5H8.4375V16.5625C8.4375 16.4796 8.40458 16.4001 8.34597 16.3415C8.28737 16.2829 8.20788 16.25 8.125 16.25H7.83656L8.08656 15.625ZM7.03832 15.625H7.41332L7.16332 16.25H6.9043L7.03832 15.625ZM7.8125 16.875V17.5H6.63672L6.77063 16.875H7.8125ZM5.20605 13.75H6.80078L5.99723 17.5H3.59879L5.20605 13.75ZM18.75 18.125V18.75H1.25V18.125H18.75ZM18.75 12.8125H17.1875V11.875H16.5625V15.3125H12.8125C12.5698 15.3125 12.3305 15.3691 12.1135 15.4778C11.8965 15.5865 11.7079 15.7443 11.5625 15.9386V15.2003C11.764 14.9726 11.8751 14.679 11.875 14.375V10.3125H11.9946C12.1681 10.6577 12.4269 10.9529 12.7464 11.1701C13.066 11.3873 13.4357 11.5193 13.8206 11.5536C14.2054 11.5878 14.5926 11.5233 14.9455 11.3659C15.2984 11.2086 15.6053 10.9638 15.8371 10.6547L16.0938 10.3125H17.1875C17.6018 10.313 17.9989 10.4777 18.2918 10.7707C18.5848 11.0636 18.7495 11.4607 18.75 11.875V12.8125ZM15.2884 11.9062L15.5609 12.4687C15.0558 12.7133 14.4986 12.8306 13.9378 12.8102C13.377 12.7899 12.8297 12.6325 12.3438 12.3519L12.6562 11.8107C13.0539 12.0403 13.5016 12.169 13.9605 12.1856C14.4193 12.2023 14.8752 12.1064 15.2884 11.9062H15.2884ZM13.125 5.62499C13.125 5.74861 13.0883 5.86944 13.0197 5.97223C12.951 6.07501 12.8534 6.15511 12.7392 6.20242C12.625 6.24972 12.4993 6.2621 12.3781 6.23798C12.2568 6.21387 12.1455 6.15434 12.0581 6.06694C11.9706 5.97953 11.9111 5.86816 11.887 5.74692C11.8629 5.62569 11.8753 5.50002 11.9226 5.38582C11.9699 5.27161 12.05 5.174 12.1528 5.10533C12.2555 5.03665 12.3764 4.99999 12.5 4.99999C12.6657 5.00019 12.8246 5.0661 12.9417 5.18327C13.0589 5.30044 13.1248 5.45929 13.125 5.62499ZM14.375 5.62499C14.375 5.50138 14.4117 5.38054 14.4803 5.27776C14.549 5.17498 14.6466 5.09487 14.7608 5.04757C14.875 5.00026 15.0007 4.98789 15.1219 5.012C15.2432 5.03612 15.3545 5.09564 15.4419 5.18305C15.5294 5.27046 15.5889 5.38182 15.613 5.50306C15.6371 5.6243 15.6247 5.74997 15.5774 5.86417C15.5301 5.97837 15.45 6.07599 15.3472 6.14466C15.2445 6.21334 15.1236 6.24999 15 6.24999C14.8343 6.2498 14.6754 6.18389 14.5583 6.06672C14.4411 5.94955 14.3752 5.79069 14.375 5.62499ZM14.5171 6.64843L14.8579 7.1723C14.5282 7.38665 14.1433 7.50074 13.75 7.50074C13.3567 7.50074 12.9718 7.38665 12.6421 7.1723L12.9829 6.64843C13.2112 6.79686 13.4777 6.87587 13.75 6.87587C14.0223 6.87587 14.2888 6.79686 14.5171 6.64843ZM5 9.68749H3.75V9.06249H5V9.68749ZM6.875 9.06249V9.68749H5.625V9.06249H6.875ZM8.75 9.06249V9.68749H7.5V9.06249H8.75ZM10.625 9.68749H9.375V9.06249H10.625V9.68749ZM3.125 9.06249V9.68749H1.875V9.06249H3.125Z" fill="#4E4E4E"/>
</svg>
