<svg width="20" height="20" viewBox="0 0 20 20" fill="none" xmlns="http://www.w3.org/2000/svg">
<g clip-path="url(#clip0)">
<path d="M6.85547 5.66406H3.73047C3.40687 5.66406 3.14453 5.92641 3.14453 6.25C3.14453 6.57359 3.40687 6.83594 3.73047 6.83594H6.85547C7.17906 6.83594 7.44141 6.57359 7.44141 6.25C7.44141 5.92641 7.17906 5.66406 6.85547 5.66406Z" fill="#4E4E4E"/>
<path d="M6.85547 8.78906H3.73047C3.40687 8.78906 3.14453 9.05141 3.14453 9.375C3.14453 9.69859 3.40687 9.96094 3.73047 9.96094H6.85547C7.17906 9.96094 7.44141 9.69859 7.44141 9.375C7.44141 9.05141 7.17906 8.78906 6.85547 8.78906Z" fill="#4E4E4E"/>
<path d="M6.85547 11.9141H3.73047C3.40687 11.9141 3.14453 12.1764 3.14453 12.5C3.14453 12.8236 3.40687 13.0859 3.73047 13.0859H6.85547C7.17906 13.0859 7.44141 12.8236 7.44141 12.5C7.44141 12.1764 7.17906 11.9141 6.85547 11.9141Z" fill="#4E4E4E"/>
<path d="M15.2539 10.7394V5.38984C15.2539 4.61758 14.9561 3.88902 14.4154 3.33801L12.038 0.879453C12.0369 0.878281 12.0357 0.87707 12.0346 0.875898C11.4872 0.319258 10.7255 0 9.94492 0H2.40234C1.43309 0 0.644531 0.788555 0.644531 1.75781V16.9531C0.644531 17.9224 1.43309 18.7109 2.40234 18.7109H11.4583C12.2933 19.5091 13.4244 20 14.668 20C17.2527 20 19.3555 17.9147 19.3555 15.3516C19.3555 12.9852 17.5631 11.0262 15.2539 10.7394ZM1.81641 16.9531V1.75781C1.81641 1.43473 2.07926 1.17188 2.40234 1.17188H9.94492C10.4127 1.17188 10.8691 1.36293 11.1975 1.69602L13.5745 4.15418C13.5756 4.15535 13.5768 4.15652 13.5779 4.15766C13.903 4.4884 14.082 4.92598 14.082 5.38988V10.74C11.7945 11.0289 10.0195 12.9869 10.0195 15.3516C10.0195 16.142 10.218 16.8868 10.5675 17.5391H2.40234C2.07926 17.5391 1.81641 17.2762 1.81641 16.9531ZM14.668 18.8281C12.751 18.8281 11.1914 17.2686 11.1914 15.3516C11.1914 13.4346 12.751 11.875 14.668 11.875C16.6065 11.875 18.1836 13.4346 18.1836 15.3516C18.1836 17.2686 16.6065 18.8281 14.668 18.8281Z" fill="#4E4E4E"/>
<path d="M16.0195 13.9639C15.771 13.7569 15.4015 13.7904 15.1943 14.039L14.2053 15.2257L13.981 14.7771C13.8363 14.4876 13.4843 14.3702 13.1949 14.515C12.9054 14.6597 12.7881 15.0117 12.9328 15.3011L13.5578 16.5511C13.6463 16.728 13.818 16.8483 14.0144 16.8711C14.037 16.8737 14.0595 16.875 14.082 16.875C14.2547 16.875 14.42 16.7986 14.5321 16.6642L16.0946 14.7892C16.3017 14.5405 16.2681 14.1711 16.0195 13.9639Z" fill="#4E4E4E"/>
<path d="M9.98047 6.83594H10.6055C10.9291 6.83594 11.1914 6.57359 11.1914 6.25C11.1914 5.92641 10.9291 5.66406 10.6055 5.66406H9.98047C9.65687 5.66406 9.39453 5.92641 9.39453 6.25C9.39453 6.57359 9.65687 6.83594 9.98047 6.83594Z" fill="#4E4E4E"/>
<path d="M11.1914 9.375C11.1914 9.05141 10.9291 8.78906 10.6055 8.78906H9.98047C9.65687 8.78906 9.39453 9.05141 9.39453 9.375C9.39453 9.69859 9.65687 9.96094 9.98047 9.96094H10.6055C10.9291 9.96094 11.1914 9.69859 11.1914 9.375Z" fill="#4E4E4E"/>
</g>
<defs>
<clipPath id="clip0">
<rect width="20" height="20" fill="white"/>
</clipPath>
</defs>
</svg>
