<svg width="20" height="20" viewBox="0 0 20 20" fill="none" xmlns="http://www.w3.org/2000/svg">
<path d="M13.1314 6.27609H18.0812L12.1484 0.34317V5.29297C12.1484 5.83511 12.5894 6.27609 13.1314 6.27609Z" fill="#4E4E4E"/>
<path d="M7.33301 13.4935H9.51624L8.42447 11.3101L7.33301 13.4935Z" fill="#4E4E4E"/>
<path d="M13.1314 7.44797C11.9432 7.44797 10.9766 6.48117 10.9766 5.29297V0H3.71735C2.52914 0 1.5625 0.966644 1.5625 2.155V17.8452C1.5625 19.0334 2.52914 20 3.71735 20H16.2695C17.4577 20 18.4244 19.0334 18.4244 17.8452V7.44797H13.1314ZM11.8245 16.8001C11.7404 16.8422 11.651 16.8622 11.563 16.8622C11.348 16.8622 11.1411 16.7435 11.0384 16.5381L10.1021 14.6654H6.74683L5.81055 16.5381C5.66589 16.8275 5.31387 16.9449 5.02441 16.8001C4.73495 16.6554 4.61761 16.3034 4.76227 16.0141L7.90024 9.73801C7.99957 9.53949 8.20251 9.41406 8.42438 9.41406C8.64639 9.41406 8.84918 9.53949 8.94852 9.73801L12.0865 16.0141C12.2313 16.3034 12.114 16.6554 11.8245 16.8001ZM14.7006 12.155H13.7173V13.1381C13.7173 13.4616 13.455 13.7241 13.1314 13.7241C12.8079 13.7241 12.5455 13.4616 12.5455 13.1381V12.155H11.5625C11.2389 12.155 10.9766 11.8925 10.9766 11.5691C10.9766 11.2454 11.2389 10.9831 11.5625 10.9831H12.5455V10C12.5455 9.67636 12.8079 9.41406 13.1314 9.41406C13.455 9.41406 13.7173 9.67636 13.7173 10V10.9831H14.7006C15.0241 10.9831 15.2866 11.2454 15.2866 11.5691C15.2866 11.8925 15.0241 12.155 14.7006 12.155Z" fill="#4E4E4E"/>
</svg>
