<svg width="20" height="20" viewBox="0 0 20 20" fill="none" xmlns="http://www.w3.org/2000/svg">
<g clip-path="url(#clip0)">
<path d="M19.6094 0.891403H13.6537C13.438 0.891403 13.2631 1.06633 13.2631 1.28203C13.2631 1.49773 13.438 1.67265 13.6537 1.67265H19.2188V12.7082H12.5359L13.3298 11.8461H17.9911C18.2068 11.8461 18.3817 11.6712 18.3817 11.4555V2.92574C18.3817 2.71004 18.2068 2.53511 17.9911 2.53511H5.977C5.76126 2.53511 5.58637 2.71004 5.58637 2.92574V5.40039C5.28438 5.39312 4.97977 5.41714 4.68325 5.47472V1.67265H10.2137C10.4295 1.67265 10.6043 1.49773 10.6043 1.28203C10.6043 1.06633 10.4295 0.891403 10.2137 0.891403H4.29262C4.07688 0.891403 3.902 1.06633 3.902 1.28203V5.72332C3.44673 5.93093 3.11606 6.20761 2.88587 6.45929C2.40247 6.98785 2.24544 7.52652 2.23899 7.54918C2.16946 7.79371 2.3604 8.04664 2.61473 8.04664H2.83903C2.82122 8.61172 2.9588 9.17464 3.00766 9.35496V9.77929C3.00766 9.78437 3.00774 9.78941 3.00794 9.79449C3.04219 10.6752 3.48598 11.4372 4.14563 11.889L4.01176 12.9046L2.23383 13.3315C2.22591 13.3334 2.21809 13.3355 2.21028 13.3379C1.00794 13.7074 0.153991 14.7994 0.0853582 16.0552C0.085202 16.0581 0.0850848 16.0611 0.0849676 16.064L0.000201966 18.7054C-0.00319647 18.8111 0.0364129 18.9137 0.110007 18.9897C0.1836 19.0657 0.284889 19.1086 0.390671 19.1086H8.52426C8.74001 19.1086 8.91489 18.9337 8.91489 18.718V17.3434C8.91489 17.0646 9.01305 16.7931 9.19122 16.5787L11.2352 14.1206L11.8164 13.4894H19.6094C19.8252 13.4894 20 13.3145 20 13.0988V1.28203C20 1.06633 19.8252 0.891403 19.6094 0.891403ZM10.9327 13.2957L10.1617 12.5076L12.467 10.5023C12.5343 10.4438 12.5788 10.3646 12.5947 10.2786C12.6156 10.1659 12.5934 10.0659 12.6837 9.97304L13.1182 9.52726C13.2293 9.41316 13.4202 9.41043 13.5349 9.52191L13.9806 9.95636C14.0942 10.067 14.0968 10.2594 13.986 10.3731L13.5514 10.8189C13.4924 10.8795 13.4093 10.9109 13.3252 10.9068C13.2087 10.9004 13.0959 10.9466 13.017 11.0322L10.9327 13.2957ZM7.11794 12.891L6.9413 11.9073C6.97106 11.8877 7.00036 11.8671 7.02942 11.8461H9.73165L8.54356 12.8122C8.47899 12.863 8.39805 12.891 8.31567 12.891H7.11794ZM6.36762 3.31636H17.6004V11.0648H14.4028L14.5456 10.9182C14.6165 10.8455 14.6756 10.7644 14.7226 10.6774C14.9483 10.2598 14.8658 9.72789 14.5259 9.39668L14.08 8.96226C13.6612 8.55437 12.969 8.56066 12.5585 8.98203L12.124 9.42789C11.9676 9.58843 11.8646 9.79808 11.8313 10.0196L10.6297 11.0648H7.74727C7.97723 10.6777 8.10051 10.2296 8.10051 9.77929V9.23535C8.76368 7.688 8.01723 5.95054 6.36762 5.50914V3.31636ZM5.04083 6.20882C5.24505 6.1832 5.45239 6.17402 5.65794 6.18531C6.73161 6.24636 7.62583 7.02343 7.57071 8.14433C7.28798 7.86796 6.89891 7.70867 6.50344 7.70867H5.72286C5.39637 7.70867 5.30426 7.31918 5.29551 7.27816C5.23329 6.95582 4.80501 6.853 4.60344 7.11257L3.62645 8.37054C3.6104 8.15507 3.61438 7.93363 3.65907 7.74718C3.7227 7.48191 3.50141 7.25492 3.24251 7.26546C3.51727 6.86015 4.05579 6.33527 5.04083 6.20882ZM3.78887 9.435L4.84309 8.07757C5.03528 8.30617 5.32079 8.48988 5.72282 8.48988H6.50341C6.79661 8.48988 7.06341 8.66281 7.18313 8.93043L7.31911 9.23445V9.77929C7.31911 10.7275 6.50137 11.5445 5.55399 11.5445C4.58516 11.5445 3.82899 10.7162 3.78883 9.7714V9.435H3.78887ZM5.4304 12.3226C5.69149 12.335 5.9545 12.3069 6.20692 12.2387L6.37071 13.1509C5.92821 13.498 5.20407 13.5118 4.76794 13.1466L4.88782 12.2368C5.06473 12.2857 5.24712 12.3136 5.4304 12.3226ZM8.59052 16.0793C8.29591 16.4336 8.13364 16.8825 8.13364 17.3434V18.3273H2.84907V16.5615C2.84907 16.3458 2.67419 16.1709 2.45844 16.1709C2.2427 16.1709 2.06782 16.3458 2.06782 16.5615V18.3273H0.79403L0.86571 16.0936C0.917272 15.1833 1.55876 14.3608 2.4286 14.0881L4.16118 13.6722C4.52954 13.9753 4.98403 14.1718 5.46313 14.1955C5.98821 14.2214 6.57508 14.0353 6.9613 13.6722H8.31567C8.57184 13.6696 8.82446 13.5852 9.02653 13.4264L9.5586 13.0083L10.4156 13.8843L8.59052 16.0793Z" fill="#4E4E4E"/>
<path d="M12.3084 1.0652C12.1162 0.771649 11.65 0.881688 11.5976 1.22474C11.5438 1.57727 11.9752 1.80833 12.2412 1.57563C12.3868 1.44821 12.4157 1.22599 12.3084 1.0652Z" fill="#4E4E4E"/>
<path d="M8.24951 5.43042H16.1562C16.3719 5.43042 16.5468 5.2555 16.5468 5.03979C16.5468 4.82409 16.3719 4.64917 16.1562 4.64917H8.24951C8.03377 4.64917 7.85889 4.82409 7.85889 5.03979C7.85889 5.2555 8.03377 5.43042 8.24951 5.43042Z" fill="#4E4E4E"/>
<path d="M16.1562 6.54765H12.6841C12.4683 6.54765 12.2935 6.72258 12.2935 6.93828C12.2935 7.15398 12.4683 7.3289 12.6841 7.3289H16.1562C16.3719 7.3289 16.5468 7.15398 16.5468 6.93828C16.5468 6.72258 16.3719 6.54765 16.1562 6.54765Z" fill="#4E4E4E"/>
</g>
<defs>
<clipPath id="clip0">
<rect width="20" height="20" fill="white"/>
</clipPath>
</defs>
</svg>
