<svg width="20" height="20" viewBox="0 0 20 20" fill="#4E4E4E" xmlns="http://www.w3.org/2000/svg">
<path d="M18.1589 1.25H9.37241C8.35724 1.25 7.53128 2.07596 7.53128 3.09113V8.72757L5.89981 7.91626C5.84473 7.88879 5.78873 7.86285 5.73227 7.83829C6.21124 7.33826 6.5065 6.66077 6.5065 5.91537C6.5065 4.3811 5.25833 3.13278 3.72406 3.13278C2.18964 3.13278 0.941467 4.3811 0.941467 5.91537C0.941467 6.74911 1.31058 7.49802 1.89346 8.00842C0.820007 8.61237 0 9.7905 0 11.25V13.1328C0 13.9433 0.526276 14.6332 1.25519 14.8784V18.1537C1.25519 18.4772 1.51749 18.7396 1.84113 18.7396H5.60669C5.93033 18.7396 6.19263 18.4772 6.19263 18.1537V11.5703L8.06854 12.5081C8.78647 12.867 9.76028 12.653 10.2007 11.8359H12.3015L10.0769 17.9533C9.96628 18.2574 10.1233 18.5938 10.4274 18.7042C10.775 18.8307 11.0841 18.6127 11.1783 18.3539L13.5484 11.8359H13.9592L16.3536 18.3557C16.4445 18.6031 16.7514 18.8338 17.1057 18.7036C17.4094 18.5921 17.5653 18.2555 17.4536 17.9517L15.2075 11.8359H18.1589C19.1544 11.8359 20 11.0329 20 9.99481V3.09113C20 2.05292 19.1544 1.25 18.1589 1.25ZM2.11334 5.91537C2.11334 5.02716 2.83585 4.30466 3.72391 4.30466C4.61212 4.30466 5.33463 5.02716 5.33463 5.91537C5.33463 6.80344 4.61212 7.52594 3.72391 7.52594C2.83585 7.52594 2.11334 6.80344 2.11334 5.91537ZM9.19922 11.2094C9.19769 11.2137 9.19617 11.2181 9.19479 11.2225C9.15482 11.3341 9.06448 11.4281 8.95386 11.4735C8.83682 11.5211 8.70514 11.5161 8.59268 11.46C7.47849 10.9026 5.86853 10.0983 5.86853 10.0983C5.47974 9.90387 5.02075 10.1871 5.02075 10.6224V17.5677H2.42706V14.388C2.42706 14.0645 2.16461 13.802 1.84113 13.802C1.47202 13.802 1.17188 13.5019 1.17188 13.1328V11.25C1.17188 9.81827 2.33765 8.69797 3.72391 8.69797H4.24164C4.6344 8.69797 5.0267 8.79013 5.3772 8.96515C5.3772 8.96515 8.28354 10.4105 9.02374 10.7791C9.18228 10.8578 9.25766 11.0428 9.19922 11.2094ZM18.8281 9.99481C18.8281 10.1738 18.7587 10.3418 18.6324 10.4681C18.508 10.5927 18.3354 10.6641 18.1589 10.6641H10.3281C10.327 10.6609 10.3262 10.6577 10.3252 10.6546L11.7793 7.74643C11.924 7.45697 11.8068 7.1051 11.5173 6.9603C11.228 6.81564 10.876 6.93283 10.7312 7.22229L9.49097 9.70261C9.2598 9.5874 8.99109 9.45358 8.70316 9.31046V3.09113C8.70316 2.72217 9.0033 2.42188 9.37241 2.42188H18.1589C18.3354 2.42188 18.508 2.49329 18.6325 2.6181C18.7587 2.74414 18.8281 2.91214 18.8281 3.09113V9.99481Z"/>
<path d="M16.9037 3.76038H10.6276C10.3039 3.76038 10.0416 4.02267 10.0416 4.34631C10.0416 4.66995 10.3039 4.93225 10.6276 4.93225H16.9037C17.2271 4.93225 17.4896 4.66995 17.4896 4.34631C17.4896 4.02267 17.2273 3.76038 16.9037 3.76038Z" fill-opacity="0.5"/>
<path d="M16.9036 5.95703H13.7655C13.442 5.95703 13.1796 6.21933 13.1796 6.54297C13.1796 6.86661 13.442 7.12891 13.7655 7.12891H16.9036C17.2271 7.12891 17.4896 6.86661 17.4896 6.54297C17.4896 6.21933 17.2273 5.95703 16.9036 5.95703Z" fill-opacity="0.5"/>
<path d="M16.9036 8.15369H13.7655C13.442 8.15369 13.1796 8.41599 13.1796 8.73962C13.1796 9.06311 13.442 9.32556 13.7655 9.32556H16.9036C17.2271 9.32556 17.4896 9.06311 17.4896 8.73962C17.4896 8.41599 17.2273 8.15369 16.9036 8.15369Z" fill-opacity="0.5"/>
</svg>
