<svg width="20" height="20" viewBox="0 0 20 20" fill="none" xmlns="http://www.w3.org/2000/svg">
<path d="M15.4005 4.24304L14.4355 5.4826C16.5152 7.10097 17.5529 9.7212 17.1437 12.3213C16.5243 16.2601 12.8156 18.9618 8.87677 18.3408C4.93818 17.7204 2.23759 14.0114 2.85671 10.0728C3.15672 8.16461 4.18214 6.48787 5.7437 5.35092C7.10682 4.35875 8.73671 3.88151 10.3972 3.97602L9.03934 5.40066L10.0467 6.36168L12.1902 4.11136L12.1907 4.11215L13.151 3.10375L12.1444 2.14351L12.1439 2.14377L9.89433 0L8.93331 1.0084L10.3993 2.40477C8.40633 2.31053 6.4555 2.88987 4.81907 4.081C2.9185 5.4648 1.67056 7.50595 1.3051 9.82879C0.551418 14.6229 3.83815 19.1374 8.63226 19.8924C9.09379 19.9649 9.55218 20 10.0053 20C14.2604 19.9997 18.0137 16.8978 18.6953 12.5652C19.1935 9.40103 17.9309 6.2122 15.4005 4.24304Z" fill="#4E4E4E"/>
<g clip-path="url(#clip0)">
<path d="M12.223 15.2516C11.768 15.2516 11.414 14.9988 11.2118 14.5438L10.841 13.7011H8.39731L8.02654 14.5775C7.84116 14.9988 7.47039 15.2347 7.0322 15.2347C6.45918 15.2347 6.021 14.7797 6.021 14.2067C6.021 14.0213 6.08841 13.8696 6.13897 13.7517L8.431 8.56088C8.6501 8.05528 9.07143 7.78563 9.59388 7.78563H9.67814C10.2006 7.78563 10.6051 8.05528 10.841 8.56088L13.1499 13.7685C13.2173 13.9202 13.251 14.0719 13.251 14.2067C13.251 14.7797 12.796 15.2516 12.223 15.2516ZM10.0152 11.7293L9.62758 10.7855L9.23996 11.7293H10.0152ZM13.4701 8.62829H13.0151V8.19011C13.0151 7.97101 12.8297 7.78563 12.6106 7.78563C12.3915 7.78563 12.2061 7.97101 12.2061 8.19011V8.64514H11.7511C11.532 8.64514 11.3466 8.83053 11.3466 9.04962C11.3466 9.26871 11.532 9.4541 11.7511 9.4541H12.2061V9.90913C12.2061 10.1282 12.3915 10.3136 12.6106 10.3136C12.8297 10.3136 13.0151 10.1282 13.0151 9.90913V9.4541H13.4701C13.6892 9.4541 13.8746 9.26871 13.8746 9.04962C13.8746 8.81367 13.6892 8.62829 13.4701 8.62829Z" fill="#4E4E4E"/>
</g>
<defs>
<clipPath id="clip0">
<rect width="7.85361" height="7.85361" fill="white" transform="translate(6.021 7.59182)"/>
</clipPath>
</defs>
</svg>
