<svg width="20" height="20" viewBox="0 0 20 20" fill="none" xmlns="http://www.w3.org/2000/svg">
<g clip-path="url(#clip0)">
<path d="M17.8958 15.9817C18.1005 15.6881 18.2209 15.3316 18.2209 14.9473V14.5915C18.2209 13.5914 17.4072 12.7777 16.4071 12.7777C15.407 12.7777 14.5934 13.5914 14.5934 14.5915V14.9473C14.5934 15.3316 14.7138 15.6881 14.9185 15.9817C14.2098 16.0028 13.5857 16.3652 13.2048 16.9101C12.824 16.3652 12.1999 16.0029 11.4911 15.9817C11.6958 15.6881 11.8162 15.3316 11.8162 14.9473V14.5915C11.8162 13.5914 11.0026 12.7777 10.0025 12.7777C9.00238 12.7777 8.18871 13.5914 8.18871 14.5915V14.9473C8.18871 15.3316 8.30915 15.6881 8.51383 15.9817C7.80357 16.0029 7.17826 16.3667 6.79769 16.9135C6.41712 16.3667 5.79177 16.0029 5.08155 15.9817C5.28623 15.6881 5.40667 15.3316 5.40667 14.9473V14.5915C5.40667 13.5914 4.593 12.7777 3.5929 12.7777C2.59279 12.7777 1.77913 13.5914 1.77913 14.5915V14.9473C1.77913 15.3316 1.89957 15.6881 2.10424 15.9817C0.938088 16.0165 0 16.9752 0 18.1496V19.607C0 19.8226 0.174878 19.9975 0.390528 19.9975H19.6095C19.8251 19.9975 20 19.8226 20 19.607V18.1496C20 16.9752 19.0619 16.0165 17.8958 15.9817ZM15.3744 14.5915C15.3744 14.0221 15.8377 13.5588 16.4071 13.5588C16.9766 13.5588 17.4399 14.0221 17.4399 14.5915V14.9473C17.4399 15.5167 16.9766 15.98 16.4071 15.98C15.8377 15.98 15.3744 15.5167 15.3744 14.9473V14.5915ZM8.96977 14.5915C8.96977 14.0221 9.43305 13.5588 10.0025 13.5588C10.5719 13.5588 11.0352 14.0221 11.0352 14.5915V14.9473C11.0352 15.5167 10.5719 15.98 10.0025 15.98C9.43305 15.98 8.96977 15.5167 8.96977 14.9473V14.5915ZM2.56015 14.5915C2.56015 14.0221 3.02343 13.5588 3.59286 13.5588C4.16229 13.5588 4.62557 14.0221 4.62557 14.5915V14.9473C4.62557 15.5167 4.16229 15.98 3.59286 15.98C3.02343 15.98 2.56015 15.5167 2.56015 14.9473V14.5915ZM6.40466 19.2164H0.781056V18.1496C0.781056 17.384 1.40395 16.7611 2.16962 16.7611H5.01614C5.78177 16.7611 6.4047 17.384 6.4047 18.1496V19.2164H6.40466ZM7.19068 18.1496C7.19068 17.384 7.81357 16.7611 8.57924 16.7611H11.4258C12.1914 16.7611 12.8143 17.384 12.8143 18.1496V19.2164H7.19072V18.1496H7.19068ZM19.2189 19.2164H13.5953V18.1496C13.5953 17.384 14.2182 16.7611 14.9839 16.7611H17.8304C18.5961 16.7611 19.219 17.384 19.219 18.1496V19.2164H19.2189Z" fill="#4E4E4E"/>
<path d="M7.30288 10.4991C7.20017 10.4991 7.09942 10.5409 7.02678 10.6135C6.95414 10.6861 6.91235 10.7865 6.91235 10.8896C6.91235 10.9924 6.9541 11.0931 7.02678 11.1657C7.09942 11.2383 7.20017 11.2802 7.30288 11.2802C7.40559 11.2802 7.50635 11.2384 7.57895 11.1657C7.65158 11.0927 7.69341 10.9924 7.69341 10.8896C7.69341 10.7869 7.65162 10.6861 7.57895 10.6135C7.50635 10.5409 7.40559 10.4991 7.30288 10.4991Z" fill="#4E4E4E"/>
<path d="M2.49941 11.28H5.7408C5.95645 11.28 6.13133 11.1052 6.13133 10.8895C6.13133 10.6739 5.95645 10.499 5.7408 10.499H2.88994V7.73366C2.88994 7.00767 3.48058 6.41708 4.20653 6.41708H4.85227V8.24276C4.85227 8.39932 4.94576 8.54069 5.08975 8.60204C5.23378 8.66335 5.40049 8.63282 5.51339 8.52437L6.91238 7.18017V8.35589C6.91238 8.57154 7.08726 8.74642 7.30291 8.74642C7.51856 8.74642 7.69344 8.57154 7.69344 8.35589V7.18017L9.09243 8.52437C9.16663 8.59564 9.2641 8.63328 9.3631 8.63328C9.41469 8.63328 9.46671 8.62305 9.51607 8.60204C9.6601 8.54069 9.75355 8.39932 9.75355 8.24276V6.41708H10.3993C11.1252 6.41708 11.7159 7.00767 11.7159 7.73366V10.499H8.86502C8.64937 10.499 8.47449 10.6739 8.47449 10.8895C8.47449 11.1052 8.64937 11.28 8.86502 11.28H12.1064C12.3221 11.28 12.4969 11.1052 12.4969 10.8895V7.73366C12.4969 6.57704 11.5559 5.63602 10.3993 5.63602H9.11734C9.54419 5.18676 9.80698 4.58015 9.80698 3.91301V3.01534V2.59998V2.50652C9.80698 1.12581 8.68366 0.00245667 7.30291 0.00245667C5.92216 0.00245667 4.79884 1.12581 4.79884 2.50652V2.59998V3.01534V3.91301C4.79884 4.58015 5.06163 5.18676 5.48848 5.63602H4.20653C3.0499 5.63602 2.10889 6.57704 2.10889 7.73366V10.8895C2.10889 11.1052 2.28377 11.28 2.49941 11.28ZM5.63332 6.41708H6.57922L5.63332 7.32591V6.41708ZM8.9725 7.32595L8.0266 6.41712H8.9725V7.32595ZM5.5799 2.50656C5.5799 1.55648 6.35283 0.783552 7.30291 0.783552C8.19253 0.783552 8.92688 1.46127 9.0167 2.32754L8.20042 1.84798C8.03597 1.75136 7.82579 1.78768 7.70328 1.93385C7.33532 2.37296 6.79569 2.62481 6.22279 2.62481H5.5799V2.59998V2.50656ZM5.5799 3.91301V3.40587H6.22275C6.915 3.40587 7.57253 3.14414 8.07182 2.67828L9.02596 3.23884V3.91301C9.02596 4.86309 8.25303 5.63602 7.30295 5.63602C6.35287 5.63602 5.5799 4.86309 5.5799 3.91301Z" fill="#4E4E4E"/>
<path d="M12.6069 6.35623C12.6705 6.39661 12.7432 6.41712 12.8163 6.41712C12.8728 6.41712 12.9295 6.40485 12.9823 6.38009L14.306 5.75845H19.157C19.619 5.75845 19.995 5.38253 19.995 4.92042V0.840491C19.995 0.378379 19.619 0.00245667 19.157 0.00245667H13.2638C12.8017 0.00245667 12.4258 0.378379 12.4258 0.840491V6.02655C12.4258 6.16019 12.4941 6.28457 12.6069 6.35623ZM13.2068 0.840491C13.2068 0.809053 13.2324 0.783513 13.2638 0.783513H19.157C19.1884 0.783513 19.2139 0.809053 19.2139 0.840491V4.92038C19.2139 4.95181 19.1884 4.97736 19.157 4.97736H14.2189C14.1615 4.97736 14.1048 4.99001 14.0529 5.01438L13.2068 5.4117V0.840491Z" fill="#4E4E4E"/>
<path d="M14.3493 2.44623H18.0715C18.2871 2.44623 18.462 2.27135 18.462 2.0557C18.462 1.84005 18.2871 1.66518 18.0715 1.66518H14.3493C14.1336 1.66518 13.9587 1.84005 13.9587 2.0557C13.9587 2.27135 14.1336 2.44623 14.3493 2.44623Z" fill="#4E4E4E"/>
<path d="M14.3493 4.00834H16.9171C17.1328 4.00834 17.3076 3.83346 17.3076 3.61781C17.3076 3.40216 17.1328 3.22728 16.9171 3.22728H14.3493C14.1336 3.22728 13.9587 3.40216 13.9587 3.61781C13.9587 3.83346 14.1336 4.00834 14.3493 4.00834Z" fill="#4E4E4E"/>
</g>
<defs>
<clipPath id="clip0">
<rect width="20" height="20" fill="white"/>
</clipPath>
</defs>
</svg>
